<svg width="1440" height="1024" viewBox="0 0 1440 1024" fill="none" xmlns="http://www.w3.org/2000/svg">
<path opacity="0.97" d="M2.07981 782.135L18.1956 717.142L86.3772 713.066L112.415 775.575L60.3351 818.247L2.07981 782.135Z" stroke="#3A72AA" stroke-width="5"/>
<path opacity="0.9" d="M10.4356 722.529L16.0337 684.78L54.4235 678.888L72.5756 713.042L45.4116 739.991L10.4356 722.529Z" stroke="#3A72AA" stroke-width="5"/>
<path opacity="0.96" d="M1257.44 327.004L1271.27 286.593L1314.59 286.496L1327.5 326.789L1292.15 351.846L1257.44 327.004Z" stroke="#3A72AA" stroke-width="5"/>
<path opacity="0.96" d="M1195.77 329.854L1216.22 270.143L1280.22 269.999L1299.31 329.563L1247.09 366.578L1195.77 329.854Z" stroke="#3A72AA" stroke-width="5"/>
<path opacity="0.98" d="M811.415 708.979L802.861 678.969L829.192 662.129L854.045 681.752L843.065 710.689L811.415 708.979Z" stroke="#3A72AA" stroke-width="2"/>
<path opacity="0.77" d="M1382.74 647.939L1442.05 618.227L1489.53 664.238L1459.61 722.317L1393.57 712.236L1382.74 647.939Z" stroke="#3A72AA" stroke-width="5"/>
<path opacity="0.96" d="M412.211 401.047L359.774 489.535L308.117 398.109L412.211 401.047Z" stroke="#4E5AA2" stroke-width="5"/>
<path opacity="0.76" d="M580.233 266.739L476.569 253.332L538.839 172.062L580.233 266.739Z" stroke="#4E5AA2" stroke-width="5"/>
<path opacity="0.98" d="M695.401 843.168L700.857 949.809L607.966 901.328L695.401 843.168Z" stroke="#4E5AA2" stroke-width="5"/>
<path opacity="0.98" d="M721.912 877.154L739.647 982.452L641.778 945.022L721.912 877.154Z" stroke="#4E5AA2" stroke-width="5"/>
<path opacity="0.98" d="M1158.36 425.937L1210.32 519.221L1105.57 516.718L1158.36 425.937Z" stroke="#4E5AA2" stroke-width="5"/>
<path opacity="0.76" d="M1221.38 113.871L1181.19 178.953L1146.3 110.823L1221.38 113.871Z" stroke="#4E5AA2" stroke-width="5"/>
<rect opacity="0.74" x="-2.57022" y="2.39114" width="162.339" height="165.621" transform="matrix(-0.0290177 0.999579 -0.99907 -0.0431225 1002.15 194.529)" stroke="#2C9DD2" stroke-width="5"/>
<rect opacity="0.77" x="0.28957" y="3.48454" width="111.947" height="110.811" transform="matrix(-0.65445 0.756106 0.770278 0.637709 391.801 796.411)" stroke="#2C9DD2" stroke-width="5"/>
<rect opacity="0.77" x="-0.429414" y="3.47008" width="111.947" height="110.811" transform="matrix(-0.795291 0.606228 0.623525 0.781803 462.686 803.041)" stroke="#2C9DD2" stroke-width="5"/>
<rect opacity="0.7" x="0.689654" y="-1.23601" width="77.8664" height="79.8023" transform="matrix(-0.272145 -0.962256 0.961799 -0.273757 942.168 391.685)" stroke="#2C9DD2" stroke-width="2"/>
<rect opacity="0.93" x="2.42513" y="2.60675" width="94" height="92.0954" transform="matrix(0.99907 0.0431225 -0.0290177 0.999579 529.689 1001.9)" stroke="#2C9DD2" stroke-width="5"/>
<rect opacity="0.88" x="0.451181" y="1.32229" width="97.8329" height="97.7494" transform="matrix(0.902793 0.430076 -0.451612 0.892214 235.788 177.302)" stroke="#2C9DD2" stroke-width="2"/>
<rect opacity="0.94" x="-2.4841" y="2.45842" width="96.7345" height="95.9824" transform="matrix(0.00622012 0.999981 -0.999862 -0.0166136 1457.45 412.602)" stroke="#2C9DD2" stroke-width="5"/>
<path opacity="0.99" d="M179.728 479.64C168.094 508.677 134.782 523.311 105.31 512.299C75.8391 501.287 61.4012 468.811 73.035 439.774C84.6688 410.737 117.981 396.104 147.453 407.116C176.924 418.128 191.362 450.604 179.728 479.64Z" stroke="#932199" stroke-width="4"/>
<path opacity="0.99" d="M1007 547.245C1002.26 559.096 988.659 565.07 976.629 560.575C964.599 556.079 958.707 542.824 963.455 530.973C968.203 519.122 981.8 513.148 993.83 517.643C1005.86 522.139 1011.75 535.394 1007 547.245Z" stroke="#932199" stroke-width="2"/>
<path opacity="0.99" d="M1386.05 942.101C1378.67 960.515 1357.55 969.79 1338.87 962.809C1320.18 955.829 1311.03 935.24 1318.4 916.826C1325.78 898.411 1346.91 889.137 1365.59 896.117C1384.27 903.097 1393.43 923.686 1386.05 942.101Z" stroke="#932199"/>
<path opacity="0.99" d="M1368.68 992.291C1356.95 1021.59 1323.34 1036.35 1293.61 1025.24C1263.88 1014.13 1249.32 981.37 1261.05 952.075C1272.79 922.78 1306.4 908.02 1336.13 919.128C1365.85 930.235 1380.42 962.996 1368.68 992.291Z" stroke="#932199" stroke-width="3"/>
<path opacity="0.99" d="M494.539 701.608C489.888 713.216 476.57 719.068 464.786 714.665C453.001 710.261 447.23 697.277 451.881 685.668C456.532 674.06 469.85 668.208 481.634 672.612C493.419 677.015 499.19 690 494.539 701.608Z" stroke="#932199" stroke-width="2"/>
<path opacity="0.99" d="M504.674 715.81C500.023 727.419 486.705 733.27 474.92 728.867C463.136 724.464 457.364 711.479 462.015 699.871C466.666 688.263 479.985 682.411 491.769 686.814C503.554 691.217 509.325 704.202 504.674 715.81Z" stroke="#932199" stroke-width="2"/>
<path opacity="0.99" d="M443.801 754.361C439.15 765.97 425.832 771.821 414.047 767.418C402.263 763.015 396.491 750.03 401.142 738.422C405.793 726.814 419.112 720.962 430.896 725.365C442.681 729.768 448.452 742.753 443.801 754.361Z" stroke="#932199" stroke-width="2"/>
<path opacity="0.99" d="M701.72 153.389C694.778 170.716 674.894 179.458 657.294 172.881C639.693 166.304 631.08 146.915 638.022 129.588C644.964 112.261 664.848 103.52 682.449 110.096C700.05 116.673 708.663 136.063 701.72 153.389Z" stroke="#932199" stroke-width="5"/>
<path opacity="0.76" d="M50.9906 536.156C1.14913 527.732 -31.6924 481.19 -22.4128 432.237C-13.1331 383.283 34.7663 350.387 84.6078 358.811C134.449 367.235 167.291 413.777 158.011 462.73C148.732 511.684 100.832 544.58 50.9906 536.156Z" stroke="#932199" stroke-width="3"/>
<path opacity="0.76" d="M218.517 1101.84C169.207 1093.51 136.739 1047.47 145.913 999.074C155.088 950.675 202.452 918.131 251.761 926.465C301.071 934.799 333.539 980.836 324.365 1029.23C315.191 1077.63 267.826 1110.18 218.517 1101.84Z" stroke="#932199" stroke-width="5"/>
<path opacity="0.91" d="M563.912 529.061L651.802 531.474L693.769 606.993L647.875 680.052L559.984 677.639L518.017 602.12L563.912 529.061Z" stroke="#6C37B9" stroke-width="5"/>
<path opacity="0.92" d="M1068.68 621.468L1162.68 623.592L1208.16 704.16L1159.66 782.55L1065.65 780.426L1020.17 699.858L1068.68 621.468Z" stroke="#6C37B9" stroke-width="5"/>
<path opacity="0.71" d="M688.228 340.129L673.518 287.876L712.503 248.663L766.245 261.713L780.955 313.965L741.971 353.179L688.228 340.129Z" stroke="#6C37B9" stroke-width="5"/>
<path opacity="0.7" d="M226.965 704.032L245.346 674.001L281.263 674.738L298.787 705.484L280.406 735.514L244.489 734.777L226.965 704.032Z" stroke="#6C37B9" stroke-width="5"/>
<path opacity="0.7" d="M1014.63 726.142L1068.24 692.293L1125.66 722.102L1129.46 785.736L1075.85 819.586L1018.43 789.776L1014.63 726.142Z" stroke="#6C37B9" stroke-width="5"/>
<path opacity="0.95" d="M841.511 895.401L899.79 852.595L967.473 881.324L976.869 952.8L918.591 995.606L850.908 966.876L841.511 895.401Z" stroke="#6C37B9" stroke-width="5"/>
</svg>
