<svg width="1440" height="1024" viewBox="0 0 1440 1024" fill="none" xmlns="http://www.w3.org/2000/svg">
<path opacity="0.97" d="M33.3633 753.238L49.2366 689.224L116.392 685.208L142.029 746.755L90.722 788.794L33.3633 753.238Z" stroke="#3A72AA" stroke-width="2"/>
<path opacity="0.9" d="M41.4139 696.457L47.0542 658.422L85.7341 652.486L104.009 686.87L76.6262 714.037L41.4139 696.457Z" stroke="#3A72AA" stroke-width="2"/>
<path opacity="0.96" d="M1232.3 318.428L1246.16 277.941L1289.56 277.844L1302.51 318.248L1267.11 343.339L1232.3 318.428Z" stroke="#3A72AA" stroke-width="2"/>
<path opacity="0.96" d="M1173.4 321.15L1193.58 262.229L1256.73 262.088L1275.58 320.898L1224.07 357.41L1173.4 321.15Z" stroke="#3A72AA" stroke-width="2"/>
<path opacity="0.98" d="M807.991 682.693L799.839 654.093L824.934 638.045L848.62 656.747L838.155 684.323L807.991 682.693Z" stroke="#3A72AA" stroke-width="2"/>
<path opacity="0.77" d="M1352.09 623.658L1410.53 594.378L1457.33 639.721L1427.82 696.997L1362.77 687.067L1352.09 623.658Z" stroke="#3A72AA" stroke-width="2"/>
<path opacity="0.96" d="M429.091 387.312L376.585 475.916L324.86 384.37L429.091 387.312Z" stroke="#4E5AA2" stroke-width="2"/>
<path opacity="0.76" d="M589.403 262.029L485.575 248.601L547.943 167.203L589.403 262.029Z" stroke="#4E5AA2" stroke-width="2"/>
<path opacity="0.98" d="M731.122 757.968L735.037 834.499L668.375 799.707L731.122 757.968Z" stroke="#4E5AA2" stroke-width="2"/>
<path opacity="0.98" d="M758.284 788.275L771.011 863.841L700.777 836.98L758.284 788.275Z" stroke="#4E5AA2" stroke-width="2"/>
<path opacity="0.98" d="M1139.34 409.613L1191.34 502.957L1086.52 500.452L1139.34 409.613Z" stroke="#4E5AA2" stroke-width="2"/>
<path opacity="0.76" d="M1201.94 113.06L1161.02 179.334L1125.48 109.957L1201.94 113.06Z" stroke="#4E5AA2" stroke-width="2"/>
<rect opacity="0.74" x="-1.02809" y="0.956456" width="77" height="78.5496" transform="matrix(-0.0290177 0.999579 -0.99907 -0.0431225 1014.67 268.499)" stroke="#2C9DD2" stroke-width="2"/>
<rect opacity="0.77" x="0.115828" y="1.39381" width="109.696" height="108.611" transform="matrix(-0.65445 0.756106 0.770278 0.637709 408.409 765.663)" stroke="#2C9DD2" stroke-width="2"/>
<rect opacity="0.77" x="-0.171765" y="1.38803" width="109.696" height="108.611" transform="matrix(-0.795291 0.606228 0.623525 0.781803 476.518 772.009)" stroke="#2C9DD2" stroke-width="2"/>
<rect opacity="0.7" x="0.689654" y="-1.23601" width="74.2801" height="76.1292" transform="matrix(-0.272145 -0.962256 0.961799 -0.273757 932.931 379.649)" stroke="#2C9DD2" stroke-width="2"/>
<rect opacity="0.93" x="0.970052" y="1.0427" width="92.5546" height="90.7356" transform="matrix(0.99907 0.0431225 -0.0290177 0.999579 538.84 930.959)" stroke="#2C9DD2" stroke-width="2"/>
<rect opacity="0.88" x="0.451181" y="1.32229" width="93.3502" height="93.2704" transform="matrix(0.902793 0.430076 -0.451612 0.892214 258.205 174.931)" stroke="#2C9DD2" stroke-width="2"/>
<rect opacity="0.94" x="-0.993642" y="0.983367" width="95.1664" height="94.448" transform="matrix(0.00622012 0.999981 -0.999862 -0.0166136 1424.99 396.901)" stroke="#2C9DD2" stroke-width="2"/>
<path opacity="0.99" d="M183.709 464.014C172.409 492.218 140.056 506.424 111.441 495.732C82.8266 485.04 68.8013 453.504 80.1013 425.301C91.4012 397.097 123.754 382.891 152.369 393.583C180.983 404.275 195.009 435.811 183.709 464.014Z" stroke="#932199" stroke-width="2"/>
<path opacity="0.99" d="M994.723 528.249C990.197 539.544 977.237 545.239 965.77 540.954C954.303 536.669 948.687 524.034 953.213 512.739C957.739 501.443 970.698 495.749 982.165 500.034C993.632 504.318 999.248 516.954 994.723 528.249Z" stroke="#932199" stroke-width="2"/>
<path opacity="0.99" d="M1356.3 905.207C1349.36 922.525 1329.49 931.251 1311.92 924.684C1294.34 918.117 1285.73 898.75 1292.67 881.433C1299.61 864.115 1319.48 855.389 1337.05 861.956C1354.62 868.523 1363.24 887.89 1356.3 905.207Z" stroke="#932199" stroke-width="2"/>
<path opacity="0.99" d="M1340.61 953.478C1329.31 981.682 1296.95 995.888 1268.34 985.196C1239.73 974.504 1225.7 942.968 1237 914.765C1248.3 886.562 1280.65 872.355 1309.27 883.047C1337.88 893.739 1351.91 925.275 1340.61 953.478Z" stroke="#932199" stroke-width="2"/>
<path opacity="0.99" d="M505.269 544.511C500.836 555.575 488.142 561.153 476.91 556.956C465.678 552.759 460.177 540.383 464.61 529.319C469.042 518.255 481.737 512.678 492.969 516.874C504.201 521.071 509.702 533.448 505.269 544.511Z" stroke="#932199" stroke-width="2"/>
<path opacity="0.99" d="M595.676 705.965C589.139 722.282 570.42 730.504 553.86 724.317C537.3 718.129 529.187 699.881 535.725 683.564C542.262 667.247 560.981 659.025 577.541 665.213C594.1 671.4 602.214 689.648 595.676 705.965Z" stroke="#932199" stroke-width="2"/>
<path opacity="0.99" d="M613.195 699.511C608.762 710.575 596.068 716.153 584.835 711.956C573.603 707.759 568.103 695.383 572.535 684.319C576.968 673.255 589.662 667.678 600.894 671.874C612.127 676.071 617.627 688.448 613.195 699.511Z" stroke="#932199" stroke-width="2"/>
<path opacity="0.99" d="M704.488 152.58C697.57 169.846 677.762 178.546 660.24 171.999C642.717 165.451 634.132 146.142 641.05 128.876C647.967 111.61 667.775 102.91 685.298 109.457C702.82 116.004 711.406 135.314 704.488 152.58Z" stroke="#932199" stroke-width="2"/>
<path opacity="0.76" d="M73.2301 470.187C55.2727 467.152 43.4504 450.387 46.791 432.764C50.1315 415.141 67.3785 403.289 85.3358 406.324C103.293 409.359 115.115 426.124 111.775 443.747C108.434 461.37 91.1874 473.222 73.2301 470.187Z" stroke="#932199" stroke-width="2"/>
<path opacity="0.76" d="M107.082 946.638C82.2259 942.437 65.8531 919.229 70.4794 894.823C75.1057 870.417 98.9877 854.012 123.844 858.213C148.7 862.414 165.073 885.623 160.447 910.029C155.821 934.434 131.939 950.839 107.082 946.638Z" stroke="#932199" stroke-width="2"/>
<path opacity="0.91" d="M661.423 452.018L746.977 454.367L787.829 527.879L743.137 599.024L657.583 596.674L616.731 523.162L661.423 452.018Z" stroke="#6C37B9" stroke-width="2"/>
<path opacity="0.92" d="M1052.9 597.761L1144.29 599.826L1188.5 678.155L1141.33 754.398L1049.93 752.333L1005.72 674.004L1052.9 597.761Z" stroke="#6C37B9" stroke-width="2"/>
<path opacity="0.71" d="M689.172 331.602L674.691 280.163L713.069 241.56L765.946 254.4L780.427 305.839L742.05 344.442L689.172 331.602Z" stroke="#6C37B9" stroke-width="2"/>
<path opacity="0.7" d="M9.77716 213.094L12.4086 180.682L42.3183 166.317L69.588 184.36L66.9566 216.773L37.0469 231.137L9.77716 213.094Z" stroke="#6C37B9" stroke-width="2"/>
<path opacity="0.7" d="M248.133 677.972L266.515 647.939L302.435 648.676L319.968 679.437L301.586 709.47L265.665 708.733L248.133 677.972Z" stroke="#6C37B9" stroke-width="2"/>
<path opacity="0.7" d="M1000.61 698.377L1053.16 665.202L1109.43 694.417L1113.16 756.798L1060.61 789.974L1004.34 760.758L1000.61 698.377Z" stroke="#6C37B9" stroke-width="2"/>
<path opacity="0.95" d="M870.545 899.213L907.853 871.81L951.181 890.202L957.199 935.973L919.891 963.376L876.562 944.984L870.545 899.213Z" stroke="#6C37B9" stroke-width="2"/>
</svg>
