<svg width="1440" height="1024" viewBox="0 0 1440 1024" fill="none" xmlns="http://www.w3.org/2000/svg">
<path opacity="0.97" d="M-30.8606 749.141L-13.8658 680.604L58.0344 676.305L85.4916 742.222L30.5702 787.222L-30.8606 749.141Z" stroke="#3A72AA" stroke-width="5"/>
<path opacity="0.9" d="M-22.0656 686.465L-16.1504 646.576L24.4141 640.351L43.5931 676.437L14.8891 704.915L-22.0656 686.465Z" stroke="#3A72AA" stroke-width="5"/>
<path opacity="0.96" d="M1289.46 270.443L1304.08 227.765L1349.82 227.663L1363.46 270.219L1326.13 296.682L1289.46 270.443Z" stroke="#3A72AA" stroke-width="5"/>
<path opacity="0.96" d="M1224.61 273.441L1246.17 210.463L1313.68 210.312L1333.81 273.138L1278.73 312.176L1224.61 273.441Z" stroke="#3A72AA" stroke-width="5"/>
<path opacity="0.98" d="M820.472 672.19L811.455 640.554L839.213 622.802L865.411 643.487L853.835 673.992L820.472 672.19Z" stroke="#3A72AA" stroke-width="2"/>
<path opacity="0.77" d="M1421.27 607.868L1483.81 576.534L1533.88 625.057L1502.33 686.31L1432.68 675.68L1421.27 607.868Z" stroke="#3A72AA" stroke-width="5"/>
<path opacity="0.96" d="M400.872 348.148L345.494 441.597L290.941 345.045L400.872 348.148Z" stroke="#4E5AA2" stroke-width="5"/>
<path opacity="0.76" d="M577.574 207.168L468.096 193.008L533.858 107.18L577.574 207.168Z" stroke="#4E5AA2" stroke-width="5"/>
<path opacity="0.98" d="M698.61 813.041L704.372 925.655L606.278 874.459L698.61 813.041Z" stroke="#4E5AA2" stroke-width="5"/>
<path opacity="0.98" d="M726.465 848.775L745.192 959.97L641.843 920.444L726.465 848.775Z" stroke="#4E5AA2" stroke-width="5"/>
<path opacity="0.98" d="M1185.41 374.189L1240.29 472.697L1129.67 470.054L1185.41 374.189Z" stroke="#4E5AA2" stroke-width="5"/>
<rect opacity="0.74" x="-2.57022" y="2.39114" width="171" height="174.452" transform="matrix(-0.0290177 0.999579 -0.99907 -0.0431225 1021.14 130.802)" stroke="#2C9DD2" stroke-width="5"/>
<rect opacity="0.77" x="0.28957" y="3.48454" width="118" height="116.805" transform="matrix(-0.65445 0.756106 0.770278 0.637709 379.293 764.043)" stroke="#2C9DD2" stroke-width="5"/>
<rect opacity="0.77" x="-0.429414" y="3.47008" width="118" height="116.805" transform="matrix(-0.795291 0.606228 0.623525 0.781803 453.886 771.017)" stroke="#2C9DD2" stroke-width="5"/>
<rect opacity="0.7" x="0.689654" y="-1.23601" width="82" height="84.0362" transform="matrix(-0.272145 -0.962256 0.961799 -0.273757 957.926 338.472)" stroke="#2C9DD2" stroke-width="2"/>
<rect opacity="0.88" x="0.451181" y="1.32229" width="103" height="102.912" transform="matrix(0.902793 0.430076 -0.451612 0.892214 215.059 112.948)" stroke="#2C9DD2" stroke-width="2"/>
<rect opacity="0.94" x="-2.4841" y="2.45842" width="102" height="101.209" transform="matrix(0.00622012 0.999981 -0.999862 -0.0166136 1499.99 360.166)" stroke="#2C9DD2" stroke-width="5"/>
<path opacity="0.99" d="M156.227 430.968C143.97 461.561 108.872 476.978 77.8224 465.376C46.7726 453.775 31.5607 419.559 43.818 388.966C56.0754 358.373 91.1732 342.956 122.223 354.558C153.273 366.159 168.485 400.375 156.227 430.968Z" stroke="#932199" stroke-width="4"/>
<path opacity="0.99" d="M1026.27 502.054C1021.27 514.545 1006.94 520.841 994.259 516.103C981.579 511.365 975.369 497.394 980.373 484.903C985.378 472.412 999.709 466.116 1012.39 470.854C1025.07 475.591 1031.28 489.563 1026.27 502.054Z" stroke="#932199" stroke-width="2"/>
<path opacity="0.99" d="M1424.91 917.337C1417.14 936.718 1394.91 946.479 1375.25 939.132C1355.59 931.786 1345.95 910.116 1353.72 890.735C1361.48 871.354 1383.71 861.593 1403.37 868.94C1423.04 876.286 1432.67 897.956 1424.91 917.337Z" stroke="#932199"/>
<path opacity="0.99" d="M1406.7 970.143C1394.33 1000.99 1358.94 1016.54 1327.64 1004.84C1296.33 993.143 1280.99 958.643 1293.35 927.791C1305.71 896.939 1341.1 881.396 1372.41 893.093C1403.72 904.791 1419.06 939.291 1406.7 970.143Z" stroke="#932199" stroke-width="3"/>
<path opacity="0.99" d="M487.284 664.406C482.381 676.642 468.343 682.809 455.922 678.168C443.501 673.527 437.417 659.841 442.32 647.605C447.222 635.369 461.261 629.201 473.681 633.843C486.102 638.484 492.186 652.17 487.284 664.406Z" stroke="#932199" stroke-width="2"/>
<path opacity="0.99" d="M497.944 679.343C493.041 691.579 479.003 697.747 466.582 693.106C454.161 688.465 448.078 674.778 452.98 662.543C457.882 650.307 471.921 644.139 484.342 648.78C496.762 653.421 502.846 667.108 497.944 679.343Z" stroke="#932199" stroke-width="2"/>
<path opacity="0.99" d="M433.92 719.89C429.018 732.126 414.979 738.293 402.559 733.652C390.138 729.011 384.054 715.325 388.957 703.089C393.859 690.853 407.897 684.685 420.318 689.326C432.739 693.967 438.823 707.654 433.92 719.89Z" stroke="#932199" stroke-width="2"/>
<path opacity="0.76" d="M20.7163 490.448C-31.7461 481.582 -66.3163 432.592 -56.5482 381.062C-46.7802 329.531 3.63995 294.906 56.1024 303.773C108.565 312.64 143.135 361.629 133.367 413.16C123.599 464.69 73.1788 499.315 20.7163 490.448Z" stroke="#932199" stroke-width="3"/>
<path opacity="0.76" d="M196.903 1085.47C144.972 1076.69 110.775 1028.2 120.438 977.228C130.101 926.253 179.986 891.978 231.916 900.755C283.847 909.532 318.044 958.018 308.381 1008.99C298.718 1059.97 248.833 1094.24 196.903 1085.47Z" stroke="#932199" stroke-width="5"/>
<path opacity="0.91" d="M560.128 482.78L652.717 485.322L696.928 564.879L648.578 641.847L555.988 639.304L511.778 559.748L560.128 482.78Z" stroke="#6C37B9" stroke-width="5"/>
<path opacity="0.92" d="M1091.01 579.97L1190.04 582.208L1237.94 667.074L1186.85 749.65L1087.82 747.412L1039.92 662.545L1091.01 579.97Z" stroke="#6C37B9" stroke-width="5"/>
<path opacity="0.71" d="M690.844 284.307L675.332 229.207L716.442 187.857L773.11 201.617L788.622 256.717L747.513 298.068L690.844 284.307Z" stroke="#6C37B9" stroke-width="5"/>
<path opacity="0.7" d="M205.662 666.933L225.071 635.223L262.998 636.001L281.503 668.468L262.094 700.178L224.167 699.4L205.662 666.933Z" stroke="#6C37B9" stroke-width="5"/>
<path opacity="0.7" d="M1034.11 690.121L1090.63 654.441L1151.15 685.863L1155.15 752.94L1098.64 788.62L1038.12 757.199L1034.11 690.121Z" stroke="#6C37B9" stroke-width="5"/>
<path opacity="0.95" d="M852.027 868.15L913.441 823.042L984.765 853.317L994.667 928.641L933.253 973.749L861.929 943.474L852.027 868.15Z" stroke="#6C37B9" stroke-width="5"/>
</svg>
