<svg width="932" height="899" viewBox="0 0 932 899" fill="none" xmlns="http://www.w3.org/2000/svg">
<path d="M471.466 332.132C481.872 328.569 493.388 330.828 501.676 338.059L568.758 396.578C577.046 403.808 580.848 414.911 578.73 425.704L561.592 513.058C559.475 523.852 551.76 532.695 541.354 536.258L457.134 565.093C446.728 568.656 435.212 566.396 426.923 559.166L359.842 500.647C351.553 493.416 347.752 482.313 349.869 471.52L367.008 384.166C369.125 373.373 376.84 364.529 387.246 360.967L471.466 332.132Z" stroke="#94A3B8"/>
<path d="M800.102 410.092C815.61 438.184 814.953 472.416 798.378 499.892L665.641 719.932C649.067 747.409 619.093 763.955 587.01 763.339L330.081 758.406C297.998 757.79 268.682 740.105 253.174 712.013L128.982 487.039C113.474 458.946 114.131 424.715 130.706 397.239L263.443 177.198C280.018 149.722 309.992 133.175 342.074 133.791L599.003 138.725C631.086 139.341 660.402 157.026 675.91 185.118L800.102 410.092Z" stroke="#94A3B8"/>
<path d="M509.109 333.827C500.551 325.757 488.337 322.864 477.069 326.24L387.325 353.127C376.057 356.503 367.445 365.634 364.734 377.081L343.147 468.245C340.436 479.691 344.038 491.715 352.596 499.786L420.753 564.063C429.311 572.134 441.524 575.026 452.793 571.65L542.537 544.763C553.805 541.388 562.417 532.256 565.127 520.809L586.715 429.646C589.425 418.199 585.823 406.176 577.265 398.105L509.109 333.827Z" stroke="#94A3B8"/>
<path d="M515.896 330.407C507.247 321.592 494.553 318.061 482.594 321.144L387.357 345.695C375.399 348.777 365.994 358.006 362.685 369.903L336.328 464.656C333.019 476.554 336.308 489.313 344.957 498.128L413.837 568.33C422.486 577.144 435.18 580.676 447.139 577.593L542.375 553.042C554.334 549.959 563.739 540.731 567.048 528.833L593.405 434.08C596.714 422.183 593.425 409.424 584.776 400.609L515.896 330.407Z" stroke="#94A3B8"/>
<path d="M522.734 325.359C514.039 315.781 500.896 311.57 488.255 314.311L387.578 336.139C374.937 338.88 364.718 348.157 360.771 360.475L329.337 458.577C325.39 470.896 328.314 484.384 337.008 493.961L406.251 570.235C414.945 579.813 428.088 584.024 440.73 581.283L541.406 559.455C554.048 556.714 564.266 547.437 568.213 535.119L599.648 437.016C603.595 424.698 600.67 411.21 591.976 401.633L522.734 325.359Z" stroke="#94A3B8"/>
<path d="M532.888 323.563C524.195 313.207 510.637 308.275 497.322 310.626L391.28 329.345C377.966 331.695 366.916 340.971 362.294 353.677L325.484 454.872C320.862 467.578 323.37 481.785 332.063 492.141L401.296 574.616C409.989 584.972 423.546 589.903 436.861 587.553L542.903 568.834C556.218 566.483 567.267 557.208 571.889 544.502L608.699 443.307C613.321 430.601 610.813 416.394 602.12 406.038L532.888 323.563Z" stroke="#94A3B8"/>
<path d="M538.557 321.347C529.913 310.199 515.978 304.509 502.002 306.421L390.692 321.646C376.715 323.558 364.82 332.781 359.488 345.841L317.018 449.851C311.686 462.911 313.725 477.824 322.369 488.972L391.21 577.757C399.854 588.905 413.789 594.595 427.765 592.683L539.076 577.457C553.052 575.546 564.947 566.323 570.28 553.263L612.749 449.252C618.082 436.193 616.042 421.28 607.398 410.132L538.557 321.347Z" stroke="#94A3B8"/>
<path d="M546.246 317.85C537.7 305.898 523.427 299.414 508.804 300.839L392.343 312.19C377.72 313.615 364.968 322.733 358.891 336.11L310.491 442.643C304.413 456.02 305.934 471.622 314.48 483.574L382.54 578.756C391.086 590.708 405.359 597.192 419.982 595.767L536.442 584.416C551.065 582.991 563.817 573.873 569.895 560.496L618.295 453.963C624.372 440.586 622.852 424.983 614.306 413.032L546.246 317.85Z" stroke="#94A3B8"/>
<path d="M555.137 317.144C546.739 304.381 532.169 297.067 516.917 297.958L395.447 305.057C380.194 305.948 366.576 314.909 359.722 328.563L305.134 437.309C298.28 450.964 299.231 467.238 307.629 480.001L374.512 581.648C382.91 594.411 397.479 601.725 412.731 600.833L534.202 593.735C549.454 592.844 563.072 583.883 569.926 570.228L624.514 461.483C631.368 447.828 630.417 431.554 622.019 418.791L555.137 317.144Z" stroke="#94A3B8"/>
<path d="M563.966 314.711C555.766 301.13 540.944 292.956 525.083 293.266L398.764 295.741C382.903 296.052 368.413 304.8 360.751 318.692L299.735 429.325C292.073 443.216 292.405 460.14 300.604 473.72L365.907 581.878C374.106 595.459 388.928 603.634 404.789 603.323L531.108 600.849C546.969 600.538 561.46 591.789 569.121 577.898L630.138 467.265C637.799 453.374 637.468 436.45 629.268 422.869L563.966 314.711Z" stroke="#94A3B8"/>
<path d="M573.958 315.025C566.008 300.624 550.979 291.558 534.532 291.242L403.548 288.727C387.101 288.411 371.735 296.894 363.238 310.979L295.568 423.158C287.071 437.243 286.734 454.792 294.684 469.193L357.998 583.887C365.948 598.288 380.977 607.354 397.424 607.67L528.408 610.185C544.855 610.501 560.221 602.018 568.718 587.933L636.389 475.754C644.886 461.669 645.223 444.12 637.273 429.719L573.958 315.025Z" stroke="#94A3B8"/>
<path d="M581.789 313.164C574.141 297.942 558.952 287.957 541.945 286.97L406.499 279.107C389.492 278.12 373.25 286.281 363.892 300.516L289.359 413.884C280.001 428.119 278.947 446.266 286.596 461.488L347.51 582.719C355.159 597.941 370.347 607.927 387.354 608.914L522.8 616.776C539.808 617.764 556.049 609.603 565.408 595.368L639.94 481.999C649.299 467.764 650.352 449.618 642.703 434.396L581.789 313.164Z" stroke="#94A3B8"/>
<path d="M590.753 314C583.458 297.959 568.16 287.029 550.621 285.326L410.938 271.767C393.398 270.064 376.283 277.848 366.039 292.186L284.455 406.376C274.211 420.714 272.394 439.428 279.69 455.468L337.788 583.217C345.084 599.258 360.382 610.188 377.921 611.89L517.604 625.45C535.143 627.152 552.258 619.368 562.502 605.03L644.087 490.841C654.331 476.503 656.147 457.789 648.852 441.748L590.753 314Z" stroke="#94A3B8"/>
<path d="M601.22 315.456C594.331 298.602 578.973 286.704 560.933 284.243L417.258 264.648C399.218 262.187 381.235 269.538 370.084 283.931L281.276 398.559C270.125 412.952 267.5 432.201 274.389 449.055L329.256 583.279C336.145 600.133 351.502 612.031 369.543 614.491L513.218 634.087C531.258 636.548 549.241 629.197 560.392 614.804L649.2 500.175C660.351 485.782 662.976 466.533 656.087 449.68L601.22 315.456Z" stroke="#94A3B8"/>
<path d="M611.129 317.108C604.698 299.45 589.335 286.563 570.827 283.303L423.425 257.342C404.916 254.082 386.075 260.944 373.998 275.343L277.814 390.016C265.736 404.415 262.258 424.163 268.689 441.821L319.907 582.456C326.338 600.114 341.701 613.001 360.21 616.26L507.612 642.222C526.12 645.482 544.961 638.62 557.039 624.221L653.223 509.548C665.3 495.149 668.778 475.401 662.347 457.743L611.129 317.108Z" stroke="#94A3B8"/>
<path d="M620.469 318.925C614.549 300.472 599.234 286.58 580.293 282.481L429.449 249.837C410.508 245.738 390.82 252.055 377.8 266.409L274.107 380.722C261.087 395.075 256.713 415.284 262.634 433.737L309.785 580.694C315.706 599.146 331.021 613.039 349.961 617.138L500.805 649.782C519.746 653.881 539.434 647.564 552.454 633.21L656.147 518.897C669.167 504.544 673.541 484.334 667.62 465.882L620.469 318.925Z" stroke="#94A3B8"/>
<path d="M629.226 320.878C623.868 301.645 608.657 286.732 589.322 281.756L435.339 242.124C416.004 237.148 395.483 242.865 381.506 257.121L270.193 370.658C256.216 384.914 250.906 405.544 256.264 424.777L298.933 577.946C304.291 597.179 319.502 612.092 338.837 617.068L492.82 656.7C512.155 661.676 532.676 655.959 546.653 641.703L657.966 528.166C671.943 513.91 677.253 493.28 671.895 474.047L629.226 320.878Z" stroke="#94A3B8"/>
<path d="M639.431 323.34C634.688 303.344 619.637 287.398 599.949 281.507L443.148 234.597C423.46 228.707 402.125 233.768 387.179 247.874L268.154 360.212C253.209 374.318 246.924 395.325 251.667 415.321L289.442 574.569C294.186 594.565 309.236 610.511 328.924 616.401L485.725 663.311C505.413 669.201 526.749 664.14 541.694 650.035L660.719 537.696C675.664 523.591 681.949 502.584 677.206 482.588L639.431 323.34Z" stroke="#94A3B8"/>
<path d="M651.076 326.278C646.999 305.539 632.167 288.55 612.167 281.711L452.889 227.247C432.889 220.408 410.761 224.759 394.838 238.66L268.032 349.366C252.11 363.267 244.813 384.606 248.89 405.346L281.362 570.517C285.439 591.256 300.271 608.245 320.271 615.084L479.549 669.548C499.548 676.387 521.677 672.036 537.599 658.136L664.406 547.429C680.328 533.528 687.625 512.189 683.548 491.449L651.076 326.278Z" stroke="#94A3B8"/>
<path d="M659.665 330.908C656.305 309.448 641.75 291.41 621.484 283.59L460.085 221.311C439.819 213.491 416.921 217.077 400.016 230.718L265.381 339.354C248.476 352.995 240.132 374.618 243.493 396.079L270.257 566.994C273.618 588.455 288.173 606.493 308.439 614.313L469.838 676.591C490.104 684.411 513.002 680.826 529.907 667.185L664.542 558.548C681.447 544.908 689.791 523.284 686.43 501.824L659.665 330.908Z" stroke="#94A3B8"/>
<path d="M669.679 335.953C667.085 313.796 652.867 294.706 632.382 285.874L469.235 215.537C448.749 206.705 425.108 209.473 407.217 222.798L264.73 328.919C246.838 342.244 237.415 364.102 240.009 386.258L260.669 562.717C263.263 584.873 277.48 603.963 297.966 612.795L461.113 683.132C481.598 691.964 505.239 689.196 523.13 675.871L665.618 569.75C683.509 556.425 692.933 534.568 690.338 512.411L669.679 335.953Z" stroke="#94A3B8"/>
<path d="M679.063 340.979C677.285 318.154 663.465 298.012 642.809 288.14L478.302 209.518C457.646 199.646 433.292 201.543 414.415 214.496L264.073 317.652C245.195 330.604 234.662 352.644 236.44 375.469L250.605 557.247C252.383 580.071 266.204 600.213 286.86 610.085L451.366 688.708C472.022 698.58 496.376 696.682 515.253 683.729L665.595 580.574C684.473 567.621 695.006 545.582 693.228 522.757L679.063 340.979Z" stroke="#94A3B8"/>
<path d="M687.819 345.954C686.904 322.492 673.542 301.3 652.766 290.362L487.303 203.246C466.527 192.308 441.494 193.284 421.633 205.807L263.457 305.544C243.596 318.067 231.925 340.235 232.84 363.697L240.127 550.55C241.042 574.012 254.404 595.203 275.18 606.142L440.643 693.257C461.419 704.196 486.452 703.219 506.313 690.696L664.489 590.959C684.35 578.436 696.021 556.268 695.106 532.806L687.819 345.954Z" stroke="#94A3B8"/>
<path d="M697.588 353.293C697.584 329.228 684.741 306.993 663.897 294.964L497.896 199.166C477.052 187.137 451.375 187.142 430.536 199.179L264.572 295.041C243.733 307.078 230.898 329.318 230.903 353.383L230.94 545.044C230.945 569.109 243.788 591.344 264.632 603.373L430.633 699.17C451.476 711.199 477.154 711.194 497.993 699.157L663.957 603.295C684.796 591.259 697.63 569.019 697.626 544.953L697.588 353.293Z" stroke="#94A3B8"/>
<path d="M706.721 360.515C707.672 335.882 695.41 312.612 674.552 299.472L508.443 194.823C487.586 181.683 461.303 180.668 439.495 192.161L265.811 283.691C244.003 295.183 229.983 317.438 229.031 342.071L221.457 538.25C220.506 562.883 232.769 586.152 253.626 599.292L419.735 703.942C440.592 717.082 466.875 718.097 488.683 706.604L662.367 615.074C684.175 603.581 698.196 581.327 699.147 556.694L706.721 360.515Z" stroke="#94A3B8"/>
<path d="M717.267 367.988C719.218 342.826 707.597 318.535 686.781 304.265L521.007 190.615C500.192 176.345 473.345 174.264 450.579 185.155L269.268 271.895C246.502 282.786 231.276 304.996 229.325 330.157L213.789 530.547C211.838 555.709 223.459 580 244.274 594.27L410.048 707.92C430.863 722.19 457.711 724.271 480.477 713.38L661.787 626.64C684.553 615.749 699.779 593.539 701.73 568.378L717.267 367.988Z" stroke="#94A3B8"/>
<path d="M727.181 375.276C730.174 349.628 719.256 324.33 698.54 308.914L533.554 186.136C512.838 170.72 485.471 167.527 461.762 177.759L272.941 259.252C249.232 269.485 232.782 291.589 229.79 317.237L205.954 521.508C202.961 547.157 213.879 572.454 234.595 587.871L399.581 710.648C420.297 726.065 447.664 729.258 471.373 719.025L660.195 637.532C683.904 627.3 700.353 605.196 703.346 579.547L727.181 375.276Z" stroke="#94A3B8"/>
<path d="M736.065 384.394C740.141 358.302 729.987 332.017 709.428 315.442L545.695 183.431C525.136 166.855 497.296 162.506 472.662 172.023L276.47 247.814C251.836 257.331 234.15 279.267 230.074 305.359L197.616 513.162C193.54 539.254 203.694 565.539 224.253 582.114L387.986 714.125C408.545 730.701 436.385 735.05 461.02 725.533L657.211 649.742C681.845 640.225 699.531 618.289 703.607 592.197L736.065 384.394Z" stroke="#94A3B8"/>
<path d="M742.285 392.86C747.482 366.371 738.153 339.121 717.81 321.375L555.804 180.048C535.462 162.302 507.198 156.757 481.659 165.501L278.262 235.139C252.723 243.883 233.789 265.588 228.592 292.078L187.202 503.043C182.005 529.533 191.335 556.783 211.677 574.528L373.683 715.856C394.025 733.601 422.289 739.147 447.829 730.403L651.225 660.764C676.764 652.02 695.698 630.316 700.896 603.826L742.285 392.86Z" stroke="#94A3B8"/>
<path d="M751.58 403.893C757.935 377.055 749.49 348.865 729.425 329.942L569.626 179.238C549.561 160.315 520.925 153.534 494.504 161.449L284.091 224.487C257.671 232.402 237.481 253.811 231.125 280.649L180.511 494.392C174.156 521.23 182.602 549.42 202.667 568.343L362.466 719.047C382.531 737.97 411.167 744.75 437.587 736.835L648 673.797C674.42 665.882 694.61 644.473 700.966 617.635L751.58 403.893Z" stroke="#94A3B8"/>
<path d="M758.227 414.206C765.775 387.07 758.273 357.969 738.547 337.864L581.444 177.747C561.718 157.642 532.764 149.588 505.49 156.619L288.273 212.615C260.998 219.647 239.547 240.694 231.999 267.83L171.884 483.944C164.336 511.08 171.839 540.181 191.565 560.286L348.668 720.403C368.394 740.508 397.348 748.562 424.622 741.531L641.839 685.534C669.113 678.503 690.565 657.456 698.113 630.32L758.227 414.206Z" stroke="#94A3B8"/>
<path d="M764.278 424.17C773.052 396.789 766.551 366.808 747.226 345.52L593.314 175.977C573.988 154.688 544.773 145.327 516.674 151.42L292.89 199.94C264.791 206.032 242.076 226.652 233.303 254.033L163.43 472.096C154.657 499.477 161.157 529.458 180.483 550.747L334.395 720.29C353.721 741.578 382.936 750.939 411.035 744.847L634.819 696.327C662.918 690.234 685.633 669.614 694.406 642.233L764.278 424.17Z" stroke="#94A3B8"/>
<path d="M771.39 436.2C781.419 408.629 775.977 377.803 757.115 355.332L606.893 176.375C588.031 153.905 558.614 143.204 529.722 148.304L299.631 188.922C270.739 194.022 246.764 214.148 236.735 241.718L156.865 461.292C146.836 488.863 152.278 519.689 171.14 542.16L321.362 721.117C340.224 743.587 369.641 754.288 398.533 749.188L628.624 708.57C657.516 703.47 681.491 683.344 691.52 655.774L771.39 436.2Z" stroke="#94A3B8"/>
<path d="M777.933 447.814C789.244 420.111 784.917 388.477 766.582 364.829L620.553 176.496C602.217 152.848 572.658 140.778 543.011 144.834L306.895 177.131C277.247 181.186 252.015 200.75 240.703 228.453L150.615 449.085C139.304 476.788 143.631 508.421 161.967 532.069L307.995 720.403C326.331 744.051 355.89 756.121 385.537 752.065L621.654 719.768C651.301 715.713 676.533 696.149 687.845 668.445L777.933 447.814Z" stroke="#94A3B8"/>
<path d="M785.569 461.433C798.189 433.656 795.031 401.256 777.285 376.438L635.956 178.789C618.21 153.971 588.572 140.506 558.207 143.465L316.372 167.036C286.006 169.995 259.526 188.93 246.907 216.707L146.402 437.927C133.782 465.704 136.94 498.103 154.686 522.921L296.015 720.571C313.761 745.388 343.399 758.853 373.764 755.894L615.599 732.324C645.964 729.364 672.444 710.43 685.064 682.653L785.569 461.433Z" stroke="#94A3B8"/>
<path d="M790.634 474.173C804.584 446.383 802.648 413.261 785.556 387.285L649.432 180.406C632.34 154.429 602.688 139.545 571.646 141.359L324.422 155.806C293.379 157.62 265.663 175.857 251.713 203.648L140.612 424.974C126.662 452.764 128.598 485.886 145.69 511.862L281.814 718.741C298.906 744.718 328.558 759.602 359.6 757.788L606.824 743.341C637.867 741.527 665.583 723.29 679.533 695.499L790.634 474.173Z" stroke="#94A3B8"/>
<path d="M795.167 486.406C810.467 458.665 809.805 424.868 793.43 397.747L663.019 181.752C646.644 154.63 617.044 138.305 585.369 138.926L333.106 143.867C301.431 144.488 272.493 161.96 257.193 189.701L135.341 410.638C120.041 438.38 120.703 472.177 137.078 499.298L267.489 715.293C283.864 742.414 313.464 758.739 345.139 758.119L597.402 753.177C629.077 752.557 658.015 735.085 673.315 707.343L795.167 486.406Z" stroke="#94A3B8"/>
</svg>
